<svg width="32" height="32" viewBox="0 0 32 32" fill="none" xmlns="http://www.w3.org/2000/svg">
<g clip-path="url(#clip0_90_86)">
<path d="M4.497 19.844H6.564L6.083 22.236H0.298L2.612 10.38H8.397L7.929 12.759H5.862L4.497 19.844Z" fill="#63CFFF"/>
<path d="M24.988 12.759L25.456 10.38H31.241L28.927 22.236H23.142L23.61 19.844H25.677L27.055 12.759H24.988Z" fill="#FF5937"/>
<path d="M13.4531 18.9751H17.9282C18.2139 18.9751 18.4487 18.6895 18.4487 18.4038C18.4487 18.1182 18.2139 17.8325 17.9282 17.8325H13.4531V18.9751ZM17.3062 14.5H13.4531V15.6489H17.3062C17.5918 15.6489 17.8267 15.3569 17.8267 15.0713C17.8267 14.7856 17.5918 14.5 17.3062 14.5ZM19.9595 16.5947C20.9243 16.9058 21.5718 17.6421 21.5718 18.7148C21.5908 20.2065 20.334 21.0063 18.8677 21.0063H10.127V12.4751H18.2393C19.7183 12.4688 20.9688 13.2749 20.9497 14.7603C20.9497 15.5791 20.5688 16.2075 19.9595 16.5947Z" fill="white"/>
</g>
<defs>
<clipPath id="clip0_90_86">
<rect width="31.88" height="32" fill="white"/>
</clipPath>
</defs>
</svg>
