<svg width="675" height="675" viewBox="0 0 675 675" fill="none" xmlns="http://www.w3.org/2000/svg">
<path d="M296.406 378.06H382.466C387.959 378.06 392.476 372.566 392.476 367.073C392.476 361.58 387.959 356.087 382.466 356.087H296.406V378.06ZM370.503 292H296.406V314.095H370.503C375.996 314.095 380.513 308.479 380.513 302.986C380.513 297.493 375.996 292 370.503 292ZM421.528 332.283C440.083 338.265 452.534 352.425 452.534 373.055C452.9 401.741 428.73 417.122 400.532 417.122H232.441V253.06H388.447C416.89 252.938 440.938 268.44 440.571 297.005C440.571 312.752 433.247 324.837 421.528 332.283Z" fill="black"/>
<path d="M127.25 394H167L157.75 440H46.5L91 212H202.25L193.25 257.75H153.5L127.25 394Z" fill="black"/>
<path d="M510 260.75L519 215H630.25L585.75 443H474.5L483.5 397H523.25L549.75 260.75H510Z" fill="black"/>
</svg>
